<svg id="visual" viewBox="0 0 1920 1280" width="1920" height="1280" xmlns="http://www.w3.org/2000/svg" xmlns:xlink="http://www.w3.org/1999/xlink" version="1.1"><rect x="0" y="0" width="1920" height="1280" fill="#125589"></rect><defs><linearGradient id="grad1_0" x1="33.3%" y1="0%" x2="100%" y2="100%"><stop offset="20%" stop-color="#125589" stop-opacity="1"></stop><stop offset="80%" stop-color="#125589" stop-opacity="1"></stop></linearGradient></defs><defs><linearGradient id="grad2_0" x1="0%" y1="0%" x2="66.7%" y2="100%"><stop offset="20%" stop-color="#125589" stop-opacity="1"></stop><stop offset="80%" stop-color="#125589" stop-opacity="1"></stop></linearGradient></defs><g transform="translate(1920, 0)"><path d="M0 750C-113 700.2 -226 650.4 -343 594.1C-460 537.8 -581 475.1 -649.5 375C-718 274.9 -734 137.4 -750 0L0 0Z" fill="#009473"></path></g><g transform="translate(0, 1280)"><path d="M0 -750C112.7 -699.7 225.5 -649.4 342.5 -593.2C459.5 -537 580.9 -474.8 649.5 -375C718.1 -275.1 734 -137.6 750 0L0 0Z" fill="#009473"></path></g></svg>