<svg id="visual" viewBox="0 0 1920 1280" width="1920" height="1280" xmlns="http://www.w3.org/2000/svg" xmlns:xlink="http://www.w3.org/1999/xlink" version="1.1"><rect x="0" y="0" width="1920" height="1280" fill="#002233"></rect><path d="M0 647L53.3 641.2C106.7 635.3 213.3 623.7 320 615.8C426.7 608 533.3 604 640 624.3C746.7 644.7 853.3 689.3 960 692.2C1066.7 695 1173.3 656 1280 665.7C1386.7 675.3 1493.3 733.7 1600 728.5C1706.7 723.3 1813.3 654.7 1866.7 620.3L1920 586L1920 1281L1866.7 1281C1813.3 1281 1706.7 1281 1600 1281C1493.3 1281 1386.7 1281 1280 1281C1173.3 1281 1066.7 1281 960 1281C853.3 1281 746.7 1281 640 1281C533.3 1281 426.7 1281 320 1281C213.3 1281 106.7 1281 53.3 1281L0 1281Z" fill="#17468d" stroke-linecap="round" stroke-linejoin="miter"></path></svg>